<svg width="199" height="40" viewBox="0 0 199 40" fill="none" xmlns="http://www.w3.org/2000/svg">
<path d="M112.784 40.0006C106.852 40.0006 102.92 37.8022 100.99 33.4054L108.817 29.5985C109.604 31.636 111.087 32.6548 113.267 32.6548C114.839 32.6548 115.697 32.2258 115.84 31.3679C115.947 30.8317 115.554 30.3849 114.661 30.0274C113.803 29.6342 112.731 29.2589 111.444 28.9014C110.193 28.544 108.96 28.0793 107.745 27.5073C106.53 26.8996 105.565 25.9524 104.85 24.6655C104.171 23.3429 103.992 21.7164 104.314 19.7861C104.779 17.1052 106.137 15.0855 108.388 13.7272C110.64 12.3688 113.124 11.6896 115.84 11.6896C118.306 11.6896 120.469 12.2079 122.327 13.2446C124.221 14.2455 125.597 15.7111 126.455 17.6414L118.896 21.2875C118.253 19.6789 117.145 18.8567 115.572 18.821C114.214 18.7495 113.428 19.2321 113.213 20.2687C113.106 20.8407 113.356 21.3232 113.964 21.7164C114.571 22.0739 115.358 22.342 116.323 22.5207C117.288 22.6995 118.324 23.0033 119.432 23.4323C120.54 23.8255 121.541 24.308 122.434 24.88C123.363 25.4519 124.043 26.3634 124.471 27.6146C124.936 28.8299 125.025 30.2955 124.739 32.0113C124.239 34.7638 122.881 36.7835 120.665 38.0703C118.449 39.3572 115.822 40.0006 112.784 40.0006Z" fill="#00171F"/>
<path d="M139.979 20.9658L138.639 28.7406C138.424 29.9559 138.71 30.7066 139.496 30.9926C140.283 31.2785 141.712 31.35 143.785 31.2071L142.391 39.2499C137.352 39.9291 133.796 39.4287 131.723 37.7486C129.65 36.0328 128.971 33.1016 129.686 28.955L131.08 20.9658H127.059L128.56 12.4403H132.581L133.439 7.61456L142.82 4.93359L141.48 12.4403H147.109L145.554 20.9658H139.979Z" fill="#00171F"/>
<path d="M159.596 40.0006C156.559 40.0006 153.985 39.2499 151.877 37.7486C149.804 36.2115 148.392 34.317 147.641 32.065C146.891 29.8129 146.748 27.4537 147.213 24.9872C147.927 21.2696 149.714 18.1239 152.574 15.5502C155.468 12.9765 159.078 11.6896 163.403 11.6896C167.692 11.6896 170.962 13.2267 173.213 16.3009C175.465 19.3393 176.251 22.7709 175.572 26.5958C174.929 30.2419 173.142 33.3876 170.211 36.0328C167.281 38.678 163.742 40.0006 159.596 40.0006ZM160.293 31.4215C161.866 31.4215 163.242 30.9032 164.421 29.8666C165.601 28.8299 166.333 27.4894 166.619 25.8451C166.905 24.2008 166.637 22.8603 165.815 21.8237C165.029 20.787 163.85 20.2687 162.277 20.2687C160.74 20.2687 159.382 20.787 158.203 21.8237C157.023 22.8603 156.291 24.2008 156.005 25.8451C155.719 27.4894 155.969 28.8299 156.755 29.8666C157.577 30.9032 158.757 31.4215 160.293 31.4215Z" fill="#00171F"/>
<path d="M189.94 17.4805C190.762 15.6575 191.977 14.2812 193.586 13.3518C195.194 12.3867 196.999 11.9041 199 11.9041L197.338 21.7701C195.301 21.4841 193.353 21.8415 191.495 22.8424C189.672 23.8433 188.546 25.6128 188.117 28.1507L188.225 27.2928L186.134 39.2499H177.235L181.952 12.4403H190.852L189.94 17.4805Z" fill="#00171F"/>
<path d="M11.7942 40C5.86136 40 1.92996 37.8016 0 33.4048L7.82706 29.5979C8.61335 31.6354 10.0966 32.6542 12.2767 32.6542C13.8493 32.6542 14.707 32.2252 14.85 31.3673C14.9572 30.8311 14.5641 30.3843 13.6706 30.0268C12.8128 29.6336 11.7406 29.2583 10.454 28.9008C9.20306 28.5433 7.97003 28.0786 6.75486 27.5067C5.5397 26.899 4.57472 25.9517 3.85992 24.6649C3.18086 23.3423 3.00216 21.7158 3.32382 19.7855C3.78844 17.1046 5.14656 15.0849 7.39818 13.7265C9.64981 12.3682 12.1337 11.689 14.85 11.689C17.316 11.689 19.4783 12.2073 21.3368 13.244C23.231 14.2449 24.607 15.7105 25.4648 17.6408L17.9057 21.2869C17.2624 19.6783 16.1545 18.8561 14.5819 18.8204C13.2238 18.7489 12.4375 19.2315 12.2231 20.2681C12.1159 20.84 12.366 21.3226 12.9736 21.7158C13.5812 22.0733 14.3675 22.3414 15.3325 22.5201C16.2974 22.6988 17.3339 23.0027 18.4419 23.4316C19.5498 23.8248 20.5505 24.3074 21.444 24.8794C22.3733 25.4513 23.0523 26.3628 23.4812 27.6139C23.9458 28.8293 24.0352 30.2949 23.7492 32.0107C23.2489 34.7632 21.8908 36.7828 19.6749 38.0697C17.459 39.3566 14.8321 40 11.7942 40Z" fill="#609DD5"/>
<path d="M56.5938 12.4397L45.3357 25.8981L52.305 39.2493H42.7624L37.0797 27.4531L34.9889 39.2493H26.0897L32.6837 1.71582H41.583L37.8303 23.0563L46.3543 12.4397H56.5938Z" fill="#609DD5"/>
<path d="M64.5339 10.2413C63.1401 10.2413 62.0142 9.74084 61.1565 8.73995C60.2987 7.70331 59.9949 6.48794 60.2451 5.09383C60.4595 3.73548 61.1386 2.55586 62.2823 1.55496C63.426 0.518321 64.7305 0 66.1958 0C67.6254 0 68.7512 0.500448 69.5733 1.50134C70.431 2.50223 70.7348 3.69973 70.4846 5.09383C70.2702 6.52368 69.5911 7.73905 68.4474 8.73995C67.3038 9.74084 65.9993 10.2413 64.5339 10.2413ZM54.8841 39.2493L59.6018 12.4397H68.5011L63.7834 39.2493H54.8841Z" fill="#609DD5"/>
<path d="M94.4345 1.71582H103.334L96.7397 39.2493H87.8405L88.2157 37.1046C86.1071 39.0349 83.4802 40 80.3351 40C76.5109 40 73.6695 38.5523 71.8111 35.6568C69.9883 32.7614 69.3986 29.3655 70.0419 25.4692C70.6495 21.6801 72.2578 18.445 74.8668 15.7641C77.4759 13.0474 80.7103 11.689 84.5702 11.689C88.0013 11.689 90.4852 12.9401 92.022 15.4424L94.4345 1.71582ZM83.5517 31.689C85.1957 31.689 86.6074 31.1886 87.7868 30.1877C89.002 29.1868 89.7883 27.8463 90.1457 26.1662L90.2529 25.63C90.5031 23.9142 90.1993 22.5559 89.3415 21.555C88.5195 20.5183 87.2686 20 85.5888 20C83.909 20 82.4437 20.5362 81.1928 21.6086C79.9776 22.681 79.2271 24.0929 78.9412 25.8445C78.6553 27.5961 78.9233 29.008 79.7453 30.0804C80.6031 31.1528 81.8719 31.689 83.5517 31.689Z" fill="#609DD5"/>
</svg>
